<svg width="40" height="40" fill="none" xmlns="http://www.w3.org/2000/svg"><circle cx="20" cy="20" r="19.25" stroke="#fff" stroke-width="1.5"/><path d="M29.824 18.133a.586.586 0 00-.575-.477H20a.586.586 0 00-.586.586v3.516c0 .323.262.586.586.586h4.724a5.388 5.388 0 01-1.48 1.822.584.584 0 00-.144.105l-.013.014A5.225 5.225 0 0120 25.313 5.32 5.32 0 0114.687 20 5.32 5.32 0 0120 14.687c1.116 0 2.21.38 3.162 1.096.233.175.56.152.766-.054l2.5-2.5a.586.586 0 00-.037-.864C24.57 10.84 22.302 10 20 10a9.927 9.927 0 00-7.06 2.94A9.926 9.926 0 0010 20a9.926 9.926 0 002.94 7.06A9.927 9.927 0 0020 30a9.927 9.927 0 007.06-2.94A9.926 9.926 0 0030 20c0-.628-.06-1.256-.176-1.867zM20 11.171c1.82 0 3.62.598 5.132 1.696l-1.686 1.685A6.337 6.337 0 0020 13.516a6.435 6.435 0 00-4.575 1.909 6.584 6.584 0 00-1.147 1.54l-1.716-1.716A8.83 8.83 0 0120 11.172zm-8.024 5.148l1.815 1.815A6.417 6.417 0 0013.516 20c0 .64.094 1.266.275 1.865l-1.815 1.815a8.776 8.776 0 01-.804-3.68c0-1.313.288-2.559.804-3.68zm.586 8.43l1.716-1.715a6.57 6.57 0 001.147 1.54A6.435 6.435 0 0020 26.485a6.32 6.32 0 003.459-1.026l1.7 1.7A8.78 8.78 0 0120 28.83a8.83 8.83 0 01-7.438-4.078zm13.503 1.659l-1.678-1.678a6.597 6.597 0 001.762-2.797.586.586 0 00-.559-.762h-5.004v-2.344h8.164a8.804 8.804 0 01-2.685 7.58z" fill="#fff"/></svg>