<svg width="40" height="40" fill="none" xmlns="http://www.w3.org/2000/svg"><circle cx="20" cy="20" r="19.25" stroke="#fff" stroke-width="1.5"/><g clip-path="url(#clip0)"><path d="M17.61 28.27c-3.338 0-5.976-.583-7.239-1.6l-.024-.02-.022-.022c-.3-.3-.398-.693-.27-1.08l.012-.031c.156-.391.54-.654.954-.657.854-.014 1.601-.116 2.279-.314-1.081-.503-1.833-1.374-2.28-2.634a.934.934 0 01.326-1.089.953.953 0 01.284-.145 6.31 6.31 0 01-1.293-2.318l-.008-.026-.005-.026c-.084-.422.104-.857.45-1.044a.967.967 0 01.461-.13 4.881 4.881 0 01-.368-1.124c-.204-1.052-.036-2.106.5-3.133l.125-.248a.694.694 0 011.107-.18l.226.226c1.786 1.872 3.385 2.76 6.15 3.367a4.898 4.898 0 011.322-2.824 4.64 4.64 0 013.312-1.46h.008c.916 0 2.052.523 2.739.892.59-.193 1.3-.492 2.036-.807a.93.93 0 011.04.183c.266.266.34.64.199 1.004a4.918 4.918 0 01-.182.439.925.925 0 01.271.187c.236.236.334.604.25.94l-.008.032c-.283.91-.825 1.65-1.542 2.116-.12 6.378-4.923 11.526-10.81 11.526zm-6.114-2.253c1.19.673 3.456 1.08 6.114 1.08 2.555 0 4.966-1.097 6.79-3.089 1.837-2.008 2.85-4.675 2.85-7.509v-.032c0-.256.14-.49.368-.611.461-.245.835-.66 1.078-1.193a.689.689 0 01-.662-.27.688.688 0 01-.005-.82c.097-.132.184-.27.262-.413-.636.268-1.24.507-1.765.666a.75.75 0 01-.577-.062c-.934-.52-1.803-.831-2.328-.833-1.934.03-3.507 1.687-3.507 3.696a.69.69 0 01-.826.679c-3.188-.628-5.077-1.57-7.041-3.544-.282.674-.359 1.354-.229 2.025.132.68.483 1.36 1.016 1.97.202.23.23.56.067.821a.687.687 0 01-.765.303 3.17 3.17 0 01-.645-.248c.41.89 1.116 1.715 2.003 2.323a.693.693 0 01-.442 1.26 3.11 3.11 0 01-.918-.198c.497 1.013 1.292 1.57 2.517 1.783a.692.692 0 01.205 1.293c-1.043.553-2.184.85-3.56.923z" fill="#fff"/></g><defs><clipPath id="clip0"><path fill="#fff" transform="translate(10 10)" d="M0 0h20v20H0z"/></clipPath></defs></svg>