<svg width="40" height="40" viewBox="0 0 40 40" fill="none" xmlns="http://www.w3.org/2000/svg">
<circle cx="20" cy="20" r="19.25" stroke="white" stroke-width="1.5"/>
<path d="M29.8244 18.1325C29.7718 17.8562 29.5302 17.6562 29.2488 17.6562H20C19.6764 17.6562 19.4141 17.9186 19.4141 18.2422V21.7578C19.4141 22.0814 19.6764 22.3438 20 22.3438H24.7238C24.3677 23.0603 23.8566 23.6805 23.2432 24.1662C23.1915 24.1931 23.143 24.2282 23.0997 24.2715C23.0952 24.276 23.0914 24.2809 23.0871 24.2855C22.2033 24.9346 21.1264 25.3125 20 25.3125C17.0603 25.3125 14.6875 22.9177 14.6875 20C14.6875 17.0811 17.0616 14.6875 20 14.6875C21.1157 14.6875 22.2091 15.0661 23.1619 15.7825C23.395 15.9579 23.7219 15.9349 23.9283 15.7285L26.4286 13.2281C26.6716 12.9851 26.6541 12.5856 26.3907 12.3648C24.5717 10.8398 22.3021 10 20 10C17.3434 10 14.8362 11.0442 12.9402 12.9402C11.0441 14.8362 10 17.3434 10 20C10 22.6566 11.0441 25.1638 12.9402 27.0598C14.8362 28.9558 17.3434 30 20 30C22.6566 30 25.1638 28.9558 27.0598 27.0598C28.9559 25.1638 30 22.6566 30 20C30 19.3725 29.9409 18.7443 29.8244 18.1325ZM20 11.1719C21.8196 11.1719 23.6191 11.7702 25.1317 12.8677L23.4463 14.5532C22.3905 13.8728 21.2088 13.5156 20 13.5156C18.281 13.5156 16.6562 14.1937 15.425 15.425C14.9621 15.8879 14.5775 16.4064 14.2776 16.9646L12.5621 15.2491C14.1327 12.7989 16.8799 11.1719 20 11.1719ZM11.9762 16.3205L13.7911 18.1354C13.6097 18.7336 13.5156 19.3602 13.5156 20C13.5156 20.6398 13.6097 21.2664 13.7911 21.8646L11.9762 23.6795C11.4602 22.5588 11.1719 21.3125 11.1719 20C11.1719 18.6875 11.4602 17.4412 11.9762 16.3205ZM12.5621 24.7509L14.2776 23.0354C14.5775 23.5936 14.9621 24.1121 15.425 24.575C16.6562 25.8063 18.281 26.4844 20 26.4844C21.2366 26.4844 22.4229 26.1313 23.459 25.4595L25.1589 27.1594C23.7068 28.2087 21.9245 28.8281 20 28.8281C16.8799 28.8281 14.1327 27.2011 12.5621 24.7509ZM26.0653 26.4086L24.3875 24.7307C25.1996 23.9648 25.8152 22.9927 26.1489 21.9339C26.205 21.7559 26.1729 21.5618 26.0625 21.4113C25.9521 21.2608 25.7767 21.1718 25.59 21.1718H20.5859V18.8281H28.7503C28.802 19.2153 28.8281 19.6077 28.8281 20C28.8281 22.5211 27.7657 24.7984 26.0653 26.4086Z" fill="white"/>
</svg>
