<svg width="40" height="40" viewBox="0 0 40 40" fill="none" xmlns="http://www.w3.org/2000/svg">
<circle cx="20" cy="20" r="19.25" stroke="white" stroke-width="1.5"/>
<g clip-path="url(#clip0)">
<path d="M17.61 28.27C14.272 28.27 11.6337 27.6868 10.3715 26.6702L10.347 26.6504L10.3247 26.6281C10.0249 26.3281 9.9266 25.9346 10.0554 25.5486L10.0671 25.5165C10.2234 25.1258 10.6062 24.8627 11.0211 24.8603C11.875 24.8455 12.6221 24.7437 13.3 24.5461C12.2186 24.0431 11.4674 23.1723 11.0205 21.9119C10.8702 21.5189 10.9999 21.0831 11.3463 20.8232C11.4317 20.759 11.5283 20.7105 11.6305 20.678C11.0297 19.9843 10.5858 19.195 10.3372 18.3602L10.3294 18.3342L10.3241 18.3077C10.2397 17.8855 10.4285 17.4513 10.7744 17.2644C10.9195 17.1811 11.0771 17.1379 11.2353 17.1343C11.0647 16.7668 10.9407 16.3896 10.8671 16.0102C10.663 14.9585 10.8314 13.9043 11.3676 12.8768L11.4917 12.6287C11.591 12.4301 11.7808 12.2907 11.9997 12.2551C12.2185 12.2197 12.4428 12.292 12.5995 12.4488L12.8255 12.675C14.6107 14.5467 16.2099 15.4347 18.9746 16.0424C19.098 14.9811 19.5569 13.9946 20.2971 13.2183C21.178 12.2945 22.3543 11.7761 23.6093 11.7584H23.6175C24.5332 11.7584 25.6691 12.2812 26.356 12.6499C26.9453 12.457 27.6553 12.1584 28.392 11.8427C28.7367 11.6809 29.1617 11.7549 29.4327 12.0259C29.6983 12.2916 29.772 12.6662 29.631 13.0303C29.5775 13.1793 29.5167 13.3257 29.4491 13.4688C29.55 13.515 29.6423 13.5778 29.7203 13.6557C29.956 13.8915 30.0543 14.2604 29.9705 14.5958L29.9615 14.6277C29.6792 15.5374 29.137 16.2784 28.4198 16.7435C28.3 23.1218 23.4968 28.27 17.61 28.27ZM11.4963 26.017C12.6857 26.6899 14.9524 27.097 17.61 27.097C20.1651 27.097 22.5763 26.0001 24.3993 24.0082C26.2372 22 27.2493 19.3332 27.2493 16.499V16.4672C27.2493 16.2105 27.3906 15.9763 27.6179 15.8557C28.0792 15.6114 28.4527 15.1953 28.6957 14.6633C28.4451 14.7028 28.1904 14.6022 28.0344 14.3926C27.8529 14.1489 27.8509 13.8198 28.0293 13.5739C28.1256 13.4412 28.2129 13.3031 28.2907 13.1603C27.6546 13.4275 27.0505 13.667 26.526 13.8262C26.3354 13.8838 26.123 13.8613 25.9489 13.7641C25.0152 13.2439 24.1456 12.9329 23.6214 12.9314C21.6867 12.961 20.1137 14.6179 20.1137 16.6269C20.1137 16.8346 20.0215 17.0293 19.8611 17.1613C19.7006 17.2931 19.4919 17.3459 19.288 17.3056C16.1001 16.6776 14.2111 15.7358 12.2467 13.7618C11.9652 14.4364 11.8883 15.1158 12.0184 15.7868C12.1504 16.4664 12.5015 17.1474 13.0339 17.7561C13.2362 17.9871 13.2631 18.3176 13.1007 18.5784C12.939 18.8382 12.6315 18.9597 12.336 18.8805C12.1049 18.8185 11.8925 18.7372 11.6911 18.6327C12.1014 19.5239 12.8072 20.3482 13.6943 20.9561C13.9514 21.1324 14.0588 21.4609 13.9557 21.7551C13.8524 22.0497 13.5638 22.2394 13.2519 22.2162C12.9121 22.191 12.6111 22.1265 12.334 22.0177C12.8314 23.0307 13.6262 23.5881 14.8508 23.8011C15.1424 23.852 15.3694 24.0822 15.4158 24.3741C15.4623 24.666 15.3178 24.9553 15.0564 25.094C14.0127 25.6473 12.872 25.9442 11.4963 26.017Z" fill="white"/>
</g>
<defs>
<clipPath id="clip0">
<rect width="20" height="20" fill="white" transform="translate(10 10)"/>
</clipPath>
</defs>
</svg>
